<mxfile host="app.diagrams.net" modified="2023-10-12T00:21:28.848Z" agent="Mozilla/5.0 (Macintosh; Intel Mac OS X 10_15_7) AppleWebKit/537.36 (KHTML, like Gecko) Chrome/116.0.0.0 Safari/537.36" version="22.0.4" etag="y2kLk0ZMJxiGKrW2l5XE" type="github">
  <diagram name="ページ1" id="DUQNv0Ok-17hsTxVuHdl">
    <mxGraphModel>
      <root>
        <mxCell id="0" />
        <mxCell id="1" parent="0" />
      </root>
    </mxGraphModel>
  </diagram>
</mxfile>
